<svg width="96" height="36" viewBox="0 0 96 36" fill="none" xmlns="http://www.w3.org/2000/svg">
<path d="M16 2C24.8366 2 32 9.16344 32 18C32 26.8366 24.8366 34 16 34C7.16344 34 0 26.8366 0 18C0 9.16344 7.16344 2 16 2ZM16 9.2002C11.1399 9.2002 7.2002 13.1399 7.2002 18C7.2002 22.8601 11.1399 26.7998 16 26.7998C20.8601 26.7998 24.7998 22.8601 24.7998 18C24.7998 13.1399 20.8601 9.2002 16 9.2002ZM16 12.4004C19.0928 12.4004 21.5996 14.9072 21.5996 18C21.5996 21.0928 19.0928 23.5996 16 23.5996C12.9072 23.5996 10.4004 21.0928 10.4004 18C10.4004 14.9072 12.9072 12.4004 16 12.4004ZM16 15.5996C14.6745 15.5996 13.5996 16.6745 13.5996 18C13.5996 19.3255 14.6745 20.4004 16 20.4004C17.3255 20.4004 18.4004 19.3255 18.4004 18C18.4004 16.6745 17.3255 15.5996 16 15.5996Z" fill="#3E3EE0"/>
<path d="M45.125 27V9.54545H49.8636V16.3636H56.1364V9.54545H60.875V27H56.1364V20.1818H49.8636V27H45.125ZM69.4659 27.2386C68.0682 27.2386 66.8636 26.9716 65.8523 26.4375C64.8466 25.8977 64.071 25.125 63.5256 24.1193C62.9858 23.108 62.7159 21.8977 62.7159 20.4886C62.7159 19.1364 62.9886 17.9545 63.5341 16.9432C64.0795 15.9318 64.8494 15.1449 65.8438 14.5824C66.8381 14.0199 68.0114 13.7386 69.3636 13.7386C70.3523 13.7386 71.2472 13.892 72.0483 14.1989C72.8494 14.5057 73.5341 14.9517 74.1023 15.5369C74.6705 16.1165 75.108 16.821 75.4148 17.6506C75.7216 18.4801 75.875 19.4148 75.875 20.4545V21.5455H64.1818V18.9545H71.5455C71.5398 18.5795 71.4432 18.25 71.2557 17.9659C71.0739 17.6761 70.8267 17.4517 70.5142 17.2926C70.2074 17.1278 69.858 17.0455 69.4659 17.0455C69.0852 17.0455 68.7358 17.1278 68.4176 17.2926C68.0994 17.4517 67.8438 17.6733 67.6506 17.9574C67.4631 18.2415 67.3636 18.5739 67.3523 18.9545V21.75C67.3523 22.1705 67.4403 22.5455 67.6165 22.875C67.7926 23.2045 68.0455 23.4631 68.375 23.6506C68.7045 23.8381 69.1023 23.9318 69.5682 23.9318C69.892 23.9318 70.1875 23.8864 70.4545 23.7955C70.7273 23.7045 70.9602 23.5739 71.1534 23.4034C71.3466 23.2273 71.4886 23.017 71.5795 22.7727H75.875C75.7273 23.6818 75.3778 24.4716 74.8267 25.142C74.2756 25.8068 73.5455 26.3239 72.6364 26.6932C71.733 27.0568 70.6761 27.2386 69.4659 27.2386ZM85.6357 13.9091V17.3182H76.8743V13.9091H85.6357ZM78.5447 27V13.5341C78.5447 12.4545 78.7379 11.5597 79.1243 10.8494C79.5107 10.1392 80.0561 9.60795 80.7607 9.25568C81.4652 8.90341 82.2947 8.72727 83.2493 8.72727C83.8459 8.72727 84.4254 8.77273 84.9879 8.86364C85.5561 8.95455 85.9766 9.03409 86.2493 9.10227L85.5675 12.4773C85.397 12.4261 85.1982 12.3864 84.9709 12.358C84.7436 12.3239 84.5447 12.3068 84.3743 12.3068C83.9311 12.3068 83.6328 12.4006 83.4794 12.5881C83.326 12.7756 83.2493 13.0227 83.2493 13.3295V27H78.5447ZM95.2578 13.9091V17.3182H86.6328V13.9091H95.2578ZM88.3033 10.7727H93.0078V22.7898C93.0078 22.9716 93.0391 23.125 93.1016 23.25C93.1641 23.3693 93.2607 23.4602 93.3913 23.5227C93.522 23.5795 93.6896 23.608 93.8942 23.608C94.0362 23.608 94.201 23.5909 94.3885 23.5568C94.5817 23.5227 94.7237 23.4943 94.8146 23.4716L95.4964 26.7784C95.2862 26.8409 94.9851 26.9176 94.593 27.0085C94.2067 27.0994 93.7464 27.1591 93.2124 27.1875C92.1328 27.2443 91.2266 27.1335 90.4936 26.8551C89.7607 26.571 89.2095 26.125 88.8402 25.517C88.4709 24.9091 88.2919 24.1477 88.3033 23.233V10.7727Z" fill="#3E3EE0"/>
</svg>
